<?xml version="1.0" encoding="utf-8"?>
<!-- Generator: Adobe Illustrator 24.0.2, SVG Export Plug-In . SVG Version: 6.00 Build 0)  -->
<svg version="1.1" xmlns="http://www.w3.org/2000/svg" xmlns:xlink="http://www.w3.org/1999/xlink" x="0px" y="0px"
	 viewBox="0 0 1668.86 969.43" style="enable-background:new 0 0 1668.86 969.43;" xml:space="preserve">
<style type="text/css">
	.st0{opacity:0.6;fill:#5B5758;}
	.st1{fill:none;}
	.st2{font-family:'MyriadPro-Regular';}
	.st3{font-size:12px;}
	.st4{fill:#212020;}
	.st5{fill:#D8D4D5;}
	.st6{opacity:0.9;}
	.st7{fill:#ED8911;}
</style>
<g id="Layer_1">
	<rect class="st0" width="1668.86" height="969.43"/>
	<rect x="533.35" y="738.45" class="st1" width="34.69" height="26.53"/>
	<text transform="matrix(1 0 0 1 533.347 746.9686)" class="st2 st3"> </text>
</g>
<g id="texto">
</g>
<g id="Capa_4">
	<g>
		<g>
			<path class="st4" d="M446.48,707.59l7.75,0.25c5.08,0.17,8.41,0.25,9.98,0.25c1.4,0,7.34-0.16,17.8-0.5l0.5,0.43v3.1l-0.5,0.43
				c-2.85,0.08-5.05,0.21-6.6,0.37c-1.55,0.17-2.68,0.48-3.38,0.93c-0.7,0.46-1.17,1.52-1.4,3.19c-0.23,1.67-0.34,4-0.34,6.98
				l-0.12,14.26v28.71l0.06,12.09c0.04,4.67,0.16,7.69,0.37,9.05c0.21,1.36,0.51,2.27,0.9,2.73c0.39,0.46,1.15,0.84,2.26,1.15
				c1.12,0.31,3.87,0.55,8.25,0.71l0.5,0.37v3.1l-0.5,0.5c-0.21,0-3.84-0.12-10.91-0.37c-2.94-0.08-5.23-0.12-6.88-0.12
				c-1.28,0-7.19,0.17-17.74,0.5l-0.5-0.5v-3.1l0.5-0.37c3.84-0.17,6.41-0.37,7.69-0.62c1.28-0.25,2.14-0.57,2.57-0.96
				c0.43-0.39,0.78-1.23,1.05-2.51c0.27-1.28,0.42-4.13,0.47-8.56l0.06-13.08V737.3l-0.12-12.09c-0.04-4.71-0.16-7.75-0.34-9.12
				c-0.19-1.36-0.48-2.27-0.87-2.73c-0.39-0.45-1.15-0.83-2.26-1.12c-1.12-0.29-3.87-0.52-8.25-0.68l-0.5-0.43v-3.1L446.48,707.59z"
				/>
			<path class="st4" d="M620.16,707.78l0.56,0.5v3.04l-0.5,0.43c-4.55,0.12-7.37,0.35-8.46,0.68c-1.1,0.33-1.87,0.88-2.33,1.64
				c-0.46,0.77-0.71,2.26-0.78,4.5c-0.06,2.23-0.18,8.54-0.34,18.91v28.59c0,4.13,0.06,8.81,0.19,14.01s0.38,8.24,0.77,9.08
				c0.39,0.85,1.11,1.47,2.14,1.86c1.03,0.39,3.97,0.65,8.81,0.78l0.5,0.43v3.04l-0.56,0.5c-6.74-0.37-12.61-0.56-17.61-0.56
				c-3.39,0-9.16,0.19-17.3,0.56l-0.56-0.5v-2.98l0.5-0.5c4.55-0.13,7.37-0.35,8.46-0.68c1.1-0.33,1.87-0.88,2.33-1.64
				c0.45-0.76,0.72-2.28,0.81-4.56c0.08-2.27,0.19-8.56,0.31-18.85v-45.52l-21.39,44.77c-5.37,11.2-10.07,21.75-14.08,31.63h-2.42
				c-2.32-5.33-4.22-9.59-5.71-12.77l-29.64-61.58v43.35c0,4.05,0.05,8.71,0.16,13.98c0.1,5.27,0.36,8.32,0.77,9.15
				c0.41,0.83,1.14,1.45,2.17,1.86c1.03,0.41,3.97,0.66,8.81,0.74l0.5,0.5v2.98l-0.56,0.56l-3.97-0.19
				c-4.09-0.21-7.61-0.31-10.54-0.31c-1.32,0-6.26,0.17-14.82,0.5l-0.5-0.5v-2.98l0.5-0.56c4.55-0.08,7.36-0.29,8.43-0.62
				c1.07-0.33,1.85-0.89,2.33-1.67c0.48-0.79,0.74-2.25,0.81-4.4c0.06-2.15,0.15-8.5,0.28-19.04v-28.4c0-3.76-0.05-8.34-0.15-13.74
				c-0.1-5.4-0.35-8.52-0.74-9.36c-0.39-0.85-1.11-1.48-2.14-1.89c-1.03-0.41-3.97-0.66-8.81-0.74l-0.5-0.5v-2.98l0.56-0.56
				c2.85,0.21,6.7,0.31,11.53,0.31c4.55,0,8.52-0.1,11.91-0.31c3.47,8.02,6.8,15.28,9.98,21.77l23.5,48.24l21.21-44.21
				c5.75-11.95,9.61-20.55,11.6-25.8c3.97,0.21,7.88,0.31,11.72,0.31C611.36,708.09,615.45,707.99,620.16,707.78z"/>
			<path class="st4" d="M645.2,707.59c10.42,0.33,17.05,0.5,19.91,0.5c3.89,0,8.25-0.1,13.08-0.31c5.13-0.17,8.29-0.25,9.49-0.25
				c5.79,0,10.57,0.6,14.36,1.8c3.78,1.2,6.91,3.39,9.4,6.57s3.72,7.03,3.72,11.53c0,3.72-0.87,7.32-2.6,10.79s-4.15,6.43-7.26,8.87
				c-3.1,2.44-6.24,4.19-9.43,5.24c-3.18,1.05-6.49,1.58-9.92,1.58c-2.56,0-5.42-0.29-8.56-0.87l-1.05-3.78l0.56-0.62
				c3.1,0.7,5.62,1.05,7.57,1.05c5.42,0,9.77-1.79,13.05-5.36c3.29-3.58,4.93-8.15,4.93-13.74c0-5.62-1.71-10.11-5.12-13.46
				c-3.41-3.35-8.57-5.02-15.47-5.02c-3.76,0-7.9,0.7-12.4,2.11c-0.37,3.18-0.56,10.87-0.56,23.07v28.71l0.06,12.09
				c0.04,4.67,0.16,7.69,0.37,9.05c0.21,1.36,0.51,2.27,0.9,2.73c0.39,0.46,1.15,0.84,2.26,1.15c1.12,0.31,3.87,0.55,8.25,0.71
				l0.5,0.37v3.1l-0.5,0.5c-10.54-0.33-16.47-0.5-17.8-0.5c-1.41,0-7.32,0.17-17.74,0.5l-0.5-0.5v-3.1l0.5-0.37
				c3.84-0.17,6.41-0.37,7.69-0.62c1.28-0.25,2.14-0.57,2.57-0.96c0.43-0.39,0.78-1.23,1.05-2.51c0.27-1.28,0.42-4.13,0.47-8.56
				l0.06-13.08V737.3l-0.12-12.09c-0.04-4.71-0.16-7.75-0.34-9.12c-0.19-1.36-0.48-2.27-0.87-2.73c-0.39-0.45-1.15-0.83-2.26-1.12
				c-1.12-0.29-3.87-0.52-8.25-0.68l-0.5-0.43v-3.1L645.2,707.59z"/>
			<path class="st4" d="M740.68,708.03l0.5-0.43c14.18,0.25,23.25,0.37,27.22,0.37c13.56,0,25.63-0.13,36.22-0.37l0.31,0.43
				c-1.04,3.97-1.8,10.19-2.29,18.67l-0.37,0.5h-3.04l-0.56-0.5c0.04-0.37,0.06-0.7,0.06-0.99c0-3.51-0.27-6.86-0.81-10.04
				c-2.61-1.16-6.21-1.91-10.82-2.26c-4.61-0.35-8.07-0.53-10.39-0.53c-3.27,0-7.44,0.23-12.53,0.68l-0.25,9.92l-0.19,11.35
				l-0.19,12.59c4.46,0.25,8.58,0.37,12.34,0.37c3.8,0,6.99-0.12,9.55-0.37c2.56-0.25,4.06-0.51,4.5-0.78
				c0.43-0.27,0.76-0.79,0.99-1.55c0.23-0.76,0.42-2.12,0.59-4.06l0.25-3.84l0.5-0.5h2.85l0.5,0.5c-0.08,4.51-0.19,9.03-0.31,13.58
				l0.31,13.95l-0.5,0.5h-2.85l-0.5-0.5l-0.44-3.72c-0.37-2.89-0.64-4.62-0.8-5.18c-0.17-0.56-0.55-1.04-1.15-1.46
				s-2.14-0.74-4.62-0.99s-5.89-0.37-10.23-0.37c-2.4,0-6.06,0.1-10.98,0.31c-0.21,3.47-0.31,9.26-0.31,17.36
				c0,8.68,0.1,15.07,0.31,19.16h11.41c10.05,0,16.33-0.13,18.85-0.37s4.92-0.85,7.19-1.8c0.37-0.95,0.98-3.15,1.83-6.6
				c0.85-3.45,1.33-5.61,1.46-6.48l0.62-0.43h2.98l0.5,0.43c-0.37,1.78-0.74,4.88-1.09,9.3c-0.35,4.42-0.53,8.21-0.53,11.35
				l-0.43,0.5c-7.9-0.25-18.23-0.37-31.01-0.37l-16.87-0.12c-3.93,0-8.02,0.17-12.28,0.5l-0.5-0.5v-2.05l0.5-0.62
				c2.44-1.24,3.83-2.02,4.19-2.33c0.35-0.31,0.64-3.93,0.87-10.85c0.23-6.92,0.34-12.21,0.34-15.84v-22.76l-0.06-14.08
				c0-3.06-0.04-5.55-0.12-7.47c-0.08-1.92-0.23-3.3-0.43-4.12c-0.21-0.83-0.44-1.41-0.71-1.74c-0.27-0.33-0.7-0.61-1.3-0.84
				c-0.6-0.23-1.62-0.42-3.07-0.59l-4.71-0.37l-0.5-0.43V708.03z"/>
			<path class="st4" d="M834.25,708.03l0.5-0.43c7.56,0.33,13.46,0.5,17.67,0.5c4.67,0,10.98-0.14,18.91-0.43
				c2.93-0.08,5.06-0.12,6.39-0.12c10.46,0,17.55,1.9,21.27,5.71c3.72,3.8,5.58,8.31,5.58,13.52c0,3.47-0.91,6.88-2.73,10.23
				c-1.82,3.35-4.51,6.21-8.06,8.59c-3.56,2.38-8.46,4.17-14.7,5.36c1.16,1.61,3.24,4.4,6.26,8.37l8.81,11.66
				c2.85,3.84,5.91,7.91,9.18,12.18c3.27,4.28,5.37,6.7,6.33,7.26c0.95,0.56,1.77,0.9,2.45,1.02c0.68,0.13,1.77,0.19,3.26,0.19
				l0.5,0.5v2.92l-0.56,0.56c-1.98-0.25-4.34-0.37-7.07-0.37c-2.94,0-6.14,0.12-9.61,0.37c-2.85-3.47-7.34-9.49-13.46-18.05
				c-7.11-9.92-14.39-19.12-21.83-27.59l0.62-1.92c2.15,0.13,3.82,0.19,5.02,0.19c7.15,0,12.75-1.71,16.81-5.15
				c4.05-3.43,6.08-8.19,6.08-14.26c0-5.46-1.82-9.58-5.46-12.37c-3.64-2.79-8.56-4.19-14.76-4.19c-4.34,0-8.43,0.6-12.28,1.8
				c-0.62,0.91-0.93,8.66-0.93,23.25v28.71l0.06,12.09c0.04,4.67,0.16,7.69,0.37,9.05s0.51,2.27,0.9,2.73
				c0.39,0.46,1.15,0.84,2.26,1.15c1.12,0.31,3.87,0.55,8.25,0.71l0.5,0.37v3.1l-0.5,0.5c-0.21,0-3.84-0.12-10.91-0.37
				c-2.94-0.08-5.23-0.12-6.88-0.12c-1.28,0-7.19,0.17-17.73,0.5l-0.5-0.5v-3.1l0.5-0.37c3.84-0.17,6.41-0.37,7.69-0.62
				c1.28-0.25,2.14-0.57,2.57-0.96c0.43-0.39,0.79-1.23,1.05-2.51c0.27-1.28,0.42-4.13,0.46-8.56l0.06-13.08V737.3l-0.13-12.09
				c-0.04-4.71-0.15-7.75-0.34-9.12c-0.19-1.36-0.48-2.27-0.87-2.73c-0.39-0.45-1.15-0.83-2.26-1.12c-1.12-0.29-3.87-0.52-8.25-0.68
				l-0.5-0.43V708.03z"/>
			<path class="st4" d="M938.04,707.59l7.75,0.25c5.08,0.17,8.41,0.25,9.98,0.25c1.4,0,7.34-0.16,17.8-0.5l0.5,0.43v3.1l-0.5,0.43
				c-2.85,0.08-5.05,0.21-6.6,0.37c-1.55,0.17-2.68,0.48-3.38,0.93c-0.7,0.46-1.17,1.52-1.39,3.19c-0.23,1.67-0.34,4-0.34,6.98
				l-0.12,14.26v28.71l0.06,12.09c0.04,4.67,0.17,7.69,0.37,9.05c0.21,1.36,0.51,2.27,0.9,2.73c0.39,0.46,1.15,0.84,2.26,1.15
				c1.12,0.31,3.87,0.55,8.25,0.71l0.5,0.37v3.1l-0.5,0.5c-0.21,0-3.84-0.12-10.91-0.37c-2.94-0.08-5.23-0.12-6.88-0.12
				c-1.28,0-7.19,0.17-17.74,0.5l-0.5-0.5v-3.1l0.5-0.37c3.85-0.17,6.41-0.37,7.69-0.62s2.14-0.57,2.57-0.96
				c0.43-0.39,0.78-1.23,1.05-2.51c0.27-1.28,0.42-4.13,0.47-8.56l0.06-13.08V737.3l-0.12-12.09c-0.04-4.71-0.16-7.75-0.34-9.12
				c-0.19-1.36-0.48-2.27-0.87-2.73c-0.39-0.45-1.15-0.83-2.26-1.12c-1.12-0.29-3.87-0.52-8.25-0.68l-0.5-0.43v-3.1L938.04,707.59z"
				/>
			<path class="st4" d="M996.93,708.03l0.5-0.43c10.25,0.33,16.16,0.5,17.74,0.5c1.41,0,7.34-0.16,17.8-0.5l0.5,0.43v3.1l-0.5,0.43
				c-2.85,0.08-5.05,0.21-6.6,0.37c-1.55,0.17-2.68,0.48-3.38,0.93c-0.7,0.46-1.17,1.52-1.4,3.19c-0.23,1.67-0.34,4-0.34,6.98
				l-0.12,14.26v19.72c0,6.49,0.13,11.25,0.4,14.29c0.27,3.04,0.85,5.6,1.74,7.69c0.89,2.09,2.24,3.89,4.06,5.39
				c1.82,1.51,4.42,2.74,7.81,3.69c3.39,0.95,7.23,1.43,11.53,1.43c4.55,0,8.79-0.63,12.74-1.89c3.95-1.26,6.96-3.09,9.02-5.49
				s3.42-5.55,4.06-9.46c0.64-3.91,0.96-9.33,0.96-16.28v-19.1c0-3.22-0.05-7.66-0.16-13.3c-0.1-5.64-0.35-8.89-0.74-9.74
				c-0.39-0.85-1.12-1.49-2.17-1.92c-1.05-0.43-3.98-0.69-8.77-0.78l-0.5-0.5v-2.91l0.5-0.56c6.12,0.33,11.02,0.5,14.7,0.5
				c3.14,0,8.02-0.16,14.63-0.5l0.56,0.5v2.98l-0.56,0.5c-3.89,0.08-6.42,0.24-7.6,0.47c-1.18,0.23-2.01,0.57-2.48,1.02
				c-0.48,0.46-0.83,1.16-1.05,2.11c-0.23,0.95-0.38,3.68-0.47,8.19l-0.19,13.95v18.85c0,7.52-0.29,13.46-0.87,17.8
				c-0.58,4.34-1.87,7.91-3.88,10.7c-2.01,2.79-4.38,5.13-7.13,7.01c-2.75,1.88-6.27,3.33-10.57,4.34
				c-4.3,1.01-8.76,1.52-13.39,1.52c-5.79,0-10.9-0.64-15.35-1.92c-4.44-1.28-7.95-2.98-10.51-5.08c-2.56-2.11-4.4-4.33-5.52-6.67
				c-1.12-2.33-1.84-5.08-2.17-8.25c-0.33-3.16-0.5-7.99-0.5-14.48V737.3l-0.13-12.09c-0.04-4.71-0.15-7.75-0.34-9.12
				c-0.19-1.36-0.48-2.27-0.87-2.73c-0.39-0.45-1.15-0.83-2.26-1.12c-1.12-0.29-3.87-0.52-8.25-0.68l-0.5-0.43V708.03z"/>
			<path class="st4" d="M1228.41,707.78l0.56,0.5v3.04l-0.5,0.43c-4.55,0.12-7.37,0.35-8.46,0.68c-1.1,0.33-1.87,0.88-2.33,1.64
				c-0.46,0.77-0.71,2.26-0.78,4.5c-0.06,2.23-0.18,8.54-0.34,18.91v28.59c0,4.13,0.06,8.81,0.19,14.01
				c0.12,5.21,0.38,8.24,0.77,9.08c0.39,0.85,1.11,1.47,2.14,1.86c1.03,0.39,3.97,0.65,8.81,0.78l0.5,0.43v3.04l-0.56,0.5
				c-6.74-0.37-12.61-0.56-17.61-0.56c-3.39,0-9.16,0.19-17.3,0.56l-0.56-0.5v-2.98l0.5-0.5c4.55-0.13,7.37-0.35,8.46-0.68
				c1.09-0.33,1.87-0.88,2.33-1.64c0.46-0.76,0.72-2.28,0.81-4.56c0.08-2.27,0.19-8.56,0.31-18.85v-45.52l-21.39,44.77
				c-5.38,11.2-10.07,21.75-14.08,31.63h-2.42c-2.32-5.33-4.22-9.59-5.71-12.77l-29.64-61.58v43.35c0,4.05,0.05,8.71,0.16,13.98
				c0.1,5.27,0.36,8.32,0.77,9.15s1.14,1.45,2.17,1.86c1.03,0.41,3.97,0.66,8.81,0.74l0.5,0.5v2.98l-0.56,0.56l-3.97-0.19
				c-4.09-0.21-7.61-0.31-10.54-0.31c-1.32,0-6.26,0.17-14.82,0.5l-0.5-0.5v-2.98l0.5-0.56c4.55-0.08,7.36-0.29,8.43-0.62
				c1.07-0.33,1.85-0.89,2.33-1.67c0.47-0.79,0.74-2.25,0.81-4.4c0.06-2.15,0.15-8.5,0.28-19.04v-28.4c0-3.76-0.05-8.34-0.16-13.74
				c-0.1-5.4-0.35-8.52-0.74-9.36c-0.39-0.85-1.11-1.48-2.14-1.89c-1.03-0.41-3.97-0.66-8.81-0.74l-0.5-0.5v-2.98l0.56-0.56
				c2.85,0.21,6.7,0.31,11.54,0.31c4.55,0,8.52-0.1,11.91-0.31c3.47,8.02,6.8,15.28,9.98,21.77l23.5,48.24l21.21-44.21
				c5.75-11.95,9.61-20.55,11.6-25.8c3.97,0.21,7.88,0.31,11.72,0.31C1219.6,708.09,1223.7,707.99,1228.41,707.78z"/>
			<path class="st5" d="M488.75,850.53h11.26v80.28h-11.26V850.53z M493.67,886.18h27.37c2.13,0,4.03-0.52,5.68-1.54
				c1.66-1.03,2.93-2.49,3.83-4.39c0.9-1.89,1.35-4.07,1.35-6.54c0-2.46-0.45-4.64-1.35-6.54c-0.9-1.89-2.17-3.36-3.81-4.39
				c-1.64-1.03-3.54-1.54-5.71-1.54h-27.37v-10.71h26.93c4.63,0,8.71,0.96,12.22,2.87c3.51,1.91,6.24,4.63,8.17,8.14
				c1.93,3.51,2.9,7.57,2.9,12.17c0,4.6-0.98,8.65-2.92,12.17c-1.95,3.51-4.68,6.23-8.19,8.14c-3.51,1.91-7.57,2.87-12.17,2.87
				h-26.93V886.18z M515.51,894.4l11.2-2.54l20.53,38.95h-13.35L515.51,894.4z"/>
			<path class="st5" d="M570.55,850.59h11.26v80.23h-11.26V850.59z M576.01,850.59h46.07v10.7h-46.07V850.59z M576.01,885.62h40
				v10.71h-40V885.62z M576.01,920.11h46.07v10.7h-46.07V920.11z"/>
			<path class="st5" d="M668.07,850.59h9.6l29.57,80.23h-12.14l-22.24-64.72l-22.24,64.72H638.5L668.07,850.59z M652.13,902.51
				h42.21v10.7h-42.21V902.51z"/>
			<path class="st5" d="M727.52,850.59h11.26v80.23h-11.26V850.59z M733.15,920.11h45.91v10.7h-45.91V920.11z"/>
			<path class="st5" d="M852.05,930.54c-3.46-0.74-6.69-1.84-9.68-3.31c-3-1.47-5.8-3.31-8.41-5.52l7.01-8.61
				c3.05,2.65,6.42,4.63,10.1,5.96c3.68,1.32,7.67,1.99,11.97,1.99c5.81,0,10.32-1.08,13.52-3.23c3.2-2.15,4.8-5.2,4.8-9.13v-0.06
				c0-2.79-0.73-5.01-2.18-6.65c-1.45-1.64-3.33-2.85-5.63-3.64c-2.3-0.79-5.27-1.52-8.91-2.18c-0.11-0.04-0.23-0.05-0.36-0.05
				c-0.13,0-0.25-0.02-0.36-0.06l-0.83-0.17c-5.37-0.92-9.74-1.96-13.1-3.12c-3.37-1.16-6.24-3.27-8.63-6.34
				c-2.39-3.07-3.59-7.44-3.59-13.1v-0.06c0-4.96,1.11-9.2,3.34-12.72c2.22-3.51,5.47-6.19,9.74-8.03c4.27-1.84,9.4-2.76,15.39-2.76
				c2.87,0,5.69,0.31,8.47,0.94c2.78,0.63,5.52,1.55,8.22,2.79c2.7,1.23,5.36,2.79,7.97,4.66l-6.4,8.94
				c-3.05-2.24-6.1-3.93-9.13-5.05c-3.03-1.12-6.08-1.68-9.13-1.68c-5.48,0-9.74,1.09-12.77,3.28c-3.04,2.19-4.55,5.29-4.55,9.3
				v0.05c0,2.76,0.78,4.93,2.35,6.51c1.56,1.58,3.51,2.75,5.85,3.5c2.33,0.75,5.58,1.54,9.74,2.34c0.15,0.04,0.28,0.06,0.41,0.08
				c0.13,0.02,0.27,0.05,0.41,0.08c0.18,0.04,0.39,0.07,0.61,0.11c0.22,0.04,0.42,0.07,0.61,0.11c4.86,0.99,8.91,2.17,12.17,3.53
				c3.25,1.36,5.98,3.56,8.17,6.59c2.19,3.04,3.28,7.18,3.28,12.44v0.11c0,4.89-1.16,9.08-3.48,12.55
				c-2.32,3.48-5.67,6.12-10.07,7.95c-4.4,1.82-9.7,2.73-15.92,2.73C859.17,931.64,855.5,931.27,852.05,930.54z"/>
			<path class="st5" d="M905.59,850.59h56.61v10.7h-56.61V850.59z M928.27,857.15h11.26v73.66h-11.26V857.15z"/>
			<path class="st5" d="M1001.02,850.59h9.6l29.57,80.23h-12.14l-22.24-64.72l-22.24,64.72h-12.14L1001.02,850.59z M985.07,902.51
				h42.21v10.7h-42.21V902.51z"/>
			<path class="st5" d="M1049.43,850.59h56.61v10.7h-56.61V850.59z M1072.11,857.15h11.26v73.66h-11.26V857.15z"/>
			<path class="st5" d="M1123.01,850.59h11.26v80.23h-11.26V850.59z M1128.47,850.59h46.07v10.7h-46.07V850.59z M1128.47,885.62h40
				v10.71h-40V885.62z M1128.47,920.11h46.07v10.7h-46.07V920.11z"/>
		</g>
	</g>
</g>
<g id="Layer_2">
	<g class="st6">
		<polygon class="st7" points="967.52,227.05 967.52,211.95 835.15,164.51 690.77,218.42 690.77,236.75 835.15,182.84 		"/>
		<polygon class="st7" points="966.96,264.39 966.96,249.29 834.59,201.85 690.21,255.76 690.21,274.09 834.59,220.18 		"/>
		<polygon class="st7" points="690.49,293.8 690.49,312.13 834.87,258.22 967.24,302.43 967.24,287.33 834.87,239.89 		"/>
		<polygon class="st7" points="966.68,339.77 966.68,324.67 834.31,277.23 689.93,331.14 689.93,349.47 834.31,295.56 		"/>
		<polygon class="st7" points="690.35,368.13 690.35,386.46 834.73,332.54 967.1,376.75 967.1,361.66 834.73,314.21 		"/>
		<polygon class="st7" points="966.54,414.09 966.54,399 834.17,351.55 689.79,405.47 689.79,423.8 834.17,369.88 		"/>
		<polygon class="st7" points="690.07,443.51 690.07,461.84 834.45,407.92 966.82,452.13 966.82,437.04 834.45,389.59 		"/>
		<polygon class="st7" points="966.26,489.47 966.26,474.38 833.89,426.93 689.51,480.85 689.51,499.18 833.89,445.26 		"/>
		<polygon class="st7" points="689.93,517.3 689.93,535.63 834.31,481.72 966.68,525.93 966.68,510.83 834.31,463.39 		"/>
		<polygon class="st7" points="966.12,563.27 966.12,548.17 833.75,500.73 689.37,554.64 689.37,572.97 833.75,519.06 		"/>
		<polygon class="st7" points="689.65,592.68 689.65,611.01 834.03,557.1 966.4,601.31 966.4,586.21 834.03,538.77 		"/>
		<polygon class="st7" points="965.84,638.65 965.84,623.55 833.47,576.11 689.09,630.02 689.09,648.35 833.47,594.44 		"/>
		<polygon class="st7" points="1211.05,351.1 1211.05,338.27 1098.73,297.94 976.22,343.77 976.22,359.35 1098.73,313.52 		"/>
		<polygon class="st7" points="1210.58,382.85 1210.58,370.01 1098.26,329.68 975.75,375.51 975.75,391.1 1098.26,345.26 		"/>
		<polygon class="st7" points="976.11,406.95 976.11,422.54 1098.61,376.7 1210.94,414.29 1210.94,401.45 1098.61,361.12 		"/>
		<polygon class="st7" points="1210.46,446.03 1210.46,433.2 1098.14,392.86 975.63,438.7 975.63,454.28 1098.14,408.45 		"/>
		<polygon class="st7" points="975.87,471.04 975.87,486.62 1098.38,440.79 1210.7,478.37 1210.7,465.54 1098.38,425.2 		"/>
		<polygon class="st7" points="1210.22,510.11 1210.22,497.28 1097.9,456.95 975.4,502.78 975.4,518.36 1097.9,472.53 		"/>
		<polygon class="st7" points="975.75,533.77 975.75,549.36 1098.26,503.52 1210.58,541.11 1210.58,528.27 1098.26,487.94 		"/>
		<polygon class="st7" points="1210.11,572.85 1210.11,560.02 1097.78,519.68 975.28,565.52 975.28,581.1 1097.78,535.27 		"/>
		<polygon class="st7" points="975.51,597.86 975.51,613.44 1098.02,567.61 1210.34,605.19 1210.34,592.36 1098.02,552.02 		"/>
		<polygon class="st7" points="1209.87,636.93 1209.87,624.1 1097.55,583.77 975.04,629.6 975.04,645.18 1097.55,599.35 		"/>
		<polygon class="st7" points="680.31,423.61 680.31,412.73 589.45,378.55 490.36,417.39 490.36,430.6 589.45,391.76 		"/>
		<polygon class="st7" points="490.64,444.03 490.64,457.24 589.74,418.4 680.6,450.25 680.6,439.37 589.74,405.2 		"/>
		<polygon class="st7" points="680.22,477.15 680.22,466.27 589.36,432.1 490.26,470.94 490.26,484.14 589.36,445.3 		"/>
		<polygon class="st7" points="490.45,498.34 490.45,511.55 589.55,472.71 680.41,504.56 680.41,493.68 589.55,459.5 		"/>
		<polygon class="st7" points="680.03,531.46 680.03,520.58 589.17,486.4 490.07,525.24 490.07,538.45 589.17,499.61 		"/>
		<polygon class="st7" points="490.36,551.5 490.36,564.71 589.45,525.87 680.31,557.72 680.31,546.84 589.45,512.66 		"/>
		<polygon class="st7" points="679.93,584.62 679.93,573.74 589.07,539.57 489.97,578.4 489.97,591.61 589.07,552.77 		"/>
		<polygon class="st7" points="490.16,605.81 490.16,619.02 589.26,580.18 680.12,612.02 680.12,601.15 589.26,566.97 		"/>
		<polygon class="st7" points="679.74,638.93 679.74,628.05 588.88,593.87 489.78,632.71 489.78,645.92 588.88,607.08 		"/>
		<polygon class="st7" points="1204.29,649.5 1100.27,619.89 1017.54,649.5 934.4,649.5 829.14,619.89 731.99,649.5 679.74,649.5 
			585.62,619.89 498.64,649.5 457.88,649.5 457.88,668.77 1235.22,668.77 1235.22,649.5 		"/>
		<polygon class="st7" points="923.02,133.33 923.02,122.92 834.8,90.2 738.58,127.38 738.58,140.03 834.8,102.84 		"/>
		<polygon class="st7" points="922.65,159.09 922.65,148.68 834.43,115.95 738.21,153.14 738.21,165.78 834.43,128.6 		"/>
		<polygon class="st7" points="738.49,178.65 738.49,191.29 834.71,154.1 922.93,184.6 922.93,174.18 834.71,141.46 		"/>
		<polygon class="st7" points="899.58,67.72 899.58,60.34 834.35,37.12 763.21,63.5 763.21,72.47 834.35,46.09 		"/>
		<polygon class="st7" points="899.3,85.99 899.3,78.61 834.07,55.39 762.93,81.77 762.93,90.74 834.07,64.36 		"/>
		<polygon class="st7" points="763.14,99.87 763.14,108.84 834.28,82.46 899.51,104.09 899.51,96.7 834.28,73.49 		"/>
	</g>
</g>
</svg>
